<svg width="122" height="43" viewBox="0 0 122 43" fill="none" xmlns="http://www.w3.org/2000/svg">
<g clip-path="url(#clip0_501_2)">
<path fill-rule="evenodd" clip-rule="evenodd" d="M6.09984 24.2564C2.73624 24.2564 0 26.7292 0 29.7692C0 32.809 2.73624 35.2821 6.09984 35.2821C9.46345 35.2821 12.2 32.809 12.2 29.7692C12.2 26.7292 9.46345 24.2564 6.09984 24.2564V24.2564Z" fill="#0094FF"/>
<path fill-rule="evenodd" clip-rule="evenodd" d="M28.2228 20.1484C27.319 19.9814 26.4307 19.9078 25.5709 19.8461C22.868 19.6509 22.2342 19.3302 21.9596 18.6237C21.9007 18.4722 21.8435 18.0874 22.1271 17.6892C22.6018 17.022 23.7864 16.6456 25.3767 16.6566C26.8513 16.6671 28.1992 17.197 29.5165 17.7404C31.3035 18.5662 33.4161 17.9579 34.2855 16.2847C34.9607 14.9856 34.7658 13.0601 32.6036 11.8476C30.3672 10.5938 28.0009 9.94131 25.4295 9.92353C19.9115 9.88483 17.2784 12.421 16.2002 13.9359C14.659 16.1013 14.3419 18.892 15.3723 21.2193C17.4787 25.9754 22.1784 26.3392 24.9866 26.5571C25.6817 26.6107 26.3381 26.6616 26.851 26.7562C28.2896 27.0219 28.2562 28.0308 28.2349 28.2302C28.1401 29.1186 27.0058 29.6631 25.275 29.6509C23.3995 29.6379 21.6378 28.9125 20.3512 27.6417C20.1 27.3937 19.6905 27.3669 19.4057 27.5803L14.908 30.9521C14.5947 31.187 14.5484 31.6235 14.8132 31.9067C17.456 34.7331 21.2093 36.3561 25.2221 36.3843C28.0018 36.4034 30.4334 35.6745 32.2539 34.2763C34.0174 32.9219 35.1124 31.0143 35.3378 28.9049C35.5466 26.9482 34.9865 24.9942 33.7602 23.403C32.4669 21.7249 30.5002 20.569 28.2228 20.1484V20.1484Z" fill="black"/>
<path fill-rule="evenodd" clip-rule="evenodd" d="M57.2243 11.7943C54.1211 10.149 50.4675 9.68905 47.0557 10.4122V3.70316C47.0557 1.65808 45.3783 0 43.1819 0C40.9856 0 39.3081 1.65808 39.3081 3.70316V14.8919C38.1343 16.2329 37.2648 17.7754 36.7508 19.4287C36.1576 21.335 37.3869 23.2277 39.3081 23.7879V34.6311C39.3081 34.9907 39.6231 35.2821 40.0123 35.2821H46.3516C46.7406 35.2821 47.0557 34.9907 47.0557 34.6311V18.0184C48.5861 17.1782 50.4347 16.9476 52.0681 17.4835C54.4729 18.2727 54.4729 20.776 54.4729 23.9585V34.6311C54.4729 34.9907 54.788 35.2821 55.1772 35.2821H61.5165C61.9055 35.2821 62.2206 34.9907 62.2206 34.6311V22.1629C62.2206 14.0623 57.2243 11.7942 57.2243 11.7942V11.7943Z" fill="black"/>
<path fill-rule="evenodd" clip-rule="evenodd" d="M79.2997 29.0806C75.6836 29.0806 72.7418 26.4218 72.7418 23.1538C72.7418 19.8856 75.6836 17.2271 79.2997 17.2271C82.9159 17.2271 85.8579 19.8856 85.8579 23.1538C85.8579 26.4218 82.9159 29.0806 79.2997 29.0806V29.0806ZM79.2995 9.9231C71.227 9.9231 64.6597 15.8581 64.6597 23.1538C64.6597 30.449 71.227 36.3846 79.2995 36.3846C87.3718 36.3846 93.9397 30.449 93.9397 23.1538C93.9397 15.8581 87.3718 9.9231 79.2995 9.9231V9.9231Z" fill="black"/>
<path fill-rule="evenodd" clip-rule="evenodd" d="M114.121 24.1098C113.918 26.9636 111.317 29.2652 108.117 29.4256C106.906 29.4862 105.764 29.2423 104.774 28.774V21.2976C104.774 19.0878 106.099 18.0517 107.72 18.0445H107.753C111.409 18.0445 114.357 20.8022 114.121 24.1098ZM121.988 23.2386C121.707 16.7405 115.845 11.4112 108.57 11.0463C106.423 10.9386 104.372 11.2584 102.512 11.918C99.0928 13.131 96.9096 15.8501 96.9096 20.0661V23.1627C96.0217 23.3132 95.2302 23.7515 94.6751 24.4151C93.9719 25.2553 93.7603 26.3157 94.0942 27.3249C94.656 29.0204 95.627 30.6206 96.9096 31.9675V42.3624C96.9096 42.7146 97.2295 43.0001 97.6241 43.0001H104.059C104.454 43.0001 104.774 42.7146 104.774 42.3624V36.1699C105.754 36.3578 106.752 36.4528 107.753 36.4534C115.794 36.4534 122.301 30.476 121.988 23.2386V23.2386Z" fill="black"/>
</g>
<defs>
<clipPath id="clip0_501_2">
<rect width="122" height="43" fill="white"/>
</clipPath>
</defs>
</svg>
